<svg width="25" height="25" viewBox="0 0 25 25" fill="none" xmlns="http://www.w3.org/2000/svg">
<g clip-path="url(#clip0_3_396)">
<path d="M17.1562 10.914C13.2972 10.914 10.1562 14.054 10.1562 17.914C10.1562 21.752 13.2972 24.875 17.1562 24.875C21.0152 24.875 24.1562 21.735 24.1562 17.875C24.1562 14.037 21.0152 10.914 17.1562 10.914ZM17.1562 22.875C14.3993 22.875 12.1562 20.649 12.1562 17.914C12.1562 15.157 14.3993 12.914 17.1562 12.914C19.9132 12.914 22.1562 15.14 22.1562 17.875C22.1562 20.632 19.9132 22.875 17.1562 22.875ZM18.8633 18.168C19.2543 18.559 19.2543 19.191 18.8633 19.582C18.6683 19.777 18.4123 19.875 18.1562 19.875C17.9002 19.875 17.6442 19.777 17.4492 19.582L16.4492 18.582C16.2612 18.394 16.1562 18.14 16.1562 17.875V15.875C16.1562 15.323 16.6033 14.875 17.1562 14.875C17.7092 14.875 18.1562 15.323 18.1562 15.875V17.461L18.8633 18.168ZM24.1562 7.875V9.875C24.1562 10.427 23.7092 10.875 23.1562 10.875C22.6033 10.875 22.1562 10.427 22.1562 9.875V7.875C22.1562 6.221 20.8102 4.875 19.1562 4.875H5.15625C3.50225 4.875 2.15625 6.221 2.15625 7.875V8.875H11.1562C11.7083 8.875 12.1562 9.323 12.1562 9.875C12.1562 10.427 11.7083 10.875 11.1562 10.875H2.15625V19.875C2.15625 21.529 3.50225 22.875 5.15625 22.875H9.15625C9.70825 22.875 10.1562 23.323 10.1562 23.875C10.1562 24.427 9.70825 24.875 9.15625 24.875H5.15625C2.39925 24.875 0.15625 22.632 0.15625 19.875V7.875C0.15625 5.118 2.39925 2.875 5.15625 2.875H6.15625V1.875C6.15625 1.323 6.60425 0.875 7.15625 0.875C7.70825 0.875 8.15625 1.323 8.15625 1.875V2.875H16.1562V1.875C16.1562 1.323 16.6033 0.875 17.1562 0.875C17.7092 0.875 18.1562 1.323 18.1562 1.875V2.875H19.1562C21.9132 2.875 24.1562 5.118 24.1562 7.875Z" fill="black"/>
</g>
<defs>
<clipPath id="clip0_3_396">
<rect width="24" height="24" fill="white" transform="translate(0.15625 0.875)"/>
</clipPath>
</defs>
</svg>
