<svg width="18" height="18" viewBox="0 0 18 18" fill="none" xmlns="http://www.w3.org/2000/svg">
<g clip-path="url(#clip0_527_1626)">
<path d="M17.4368 9.76141C17.01 9.27766 16.395 9.00016 15.75 9.00016H1.5V3.36166C1.5 2.73091 1.785 2.10691 2.31975 1.77166C3.1365 1.25941 4.134 1.51141 4.65 2.19991L4.84425 2.45866L4.482 4.53691C4.4385 4.78741 4.49025 5.04541 4.6275 5.25916C4.94625 5.75566 5.61975 5.87716 6.0915 5.52316L8.796 3.49516C9.22125 3.17641 9.3285 2.58241 9.04125 2.13466L9.0315 2.11891C8.85375 1.84141 8.5515 1.66741 8.22225 1.65241L6.04275 1.55566L5.91225 1.38166C5.41875 0.723907 4.7175 0.225157 3.9105 0.0654073C1.83 -0.346343 0 1.24216 0 3.24991C0 3.24991 0.003 7.53241 0.0045 9.19216C0.0045 9.62416 0.03225 10.0509 0.0855 10.4799C0.16125 11.0867 0.26325 11.9049 0.26325 11.9049C0.4515 13.4087 1.1805 14.7302 2.2395 15.6827L1.89675 17.0702C1.797 17.4722 2.04225 17.8787 2.44425 17.9784C2.505 17.9934 2.565 18.0002 2.625 18.0002C2.96175 18.0002 3.26775 17.7714 3.3525 17.4302L3.56025 16.5894C4.392 17.0124 5.33025 17.2502 6.31725 17.2502H11.88C12.7973 17.2502 13.6725 17.0454 14.46 16.6764L14.6468 17.4302C14.7308 17.7714 15.0375 18.0002 15.3743 18.0002C15.4343 18.0002 15.4943 17.9927 15.555 17.9784C15.957 17.8787 16.2023 17.4722 16.1025 17.0702L15.795 15.8252C16.9425 14.8637 17.7383 13.4852 17.9355 11.9057L17.982 11.5299C18.0615 10.8894 17.8635 10.2459 17.436 9.76216L17.4368 9.76141ZM16.494 11.3432L16.4475 11.7189C16.1603 14.0169 14.1968 15.7502 11.8808 15.7502H6.318C4.002 15.7502 2.03925 14.0169 1.752 11.7189L1.59975 10.5002H15.75C15.9683 10.5002 16.1685 10.5902 16.3125 10.7537C16.4565 10.9179 16.521 11.1264 16.494 11.3432Z" fill="#AF7E3C"/>
</g>
<defs>
<clipPath id="clip0_527_1626">
<rect width="18" height="18" fill="white"/>
</clipPath>
</defs>
</svg>
