<svg width="18" height="18" viewBox="0 0 18 18" fill="none" xmlns="http://www.w3.org/2000/svg">
<path d="M14.25 1.5H3.75C1.68225 1.5 0 3.18225 0 5.25V15.75C0 16.1648 0.336 16.5 0.75 16.5C1.164 16.5 1.5 16.1648 1.5 15.75V14.25H16.5V15.75C16.5 16.1648 16.8353 16.5 17.25 16.5C17.6647 16.5 18 16.1648 18 15.75V5.25C18 3.18225 16.3177 1.5 14.25 1.5ZM3.75 3H14.25C15.4905 3 16.5 4.0095 16.5 5.25V9.75H15C15 8.0955 13.6545 6.75 12 6.75H11.25C10.3545 6.75 9.5505 7.1445 9 7.76775C8.4495 7.14375 7.6455 6.75 6.75 6.75H6C4.3455 6.75 3 8.0955 3 9.75H1.5V5.25C1.5 4.0095 2.5095 3 3.75 3ZM9.75 9.75C9.75 8.92275 10.4227 8.25 11.25 8.25H12C12.8273 8.25 13.5 8.92275 13.5 9.75H9.75ZM4.5 9.75C4.5 8.92275 5.17275 8.25 6 8.25H6.75C7.57725 8.25 8.25 8.92275 8.25 9.75H4.5ZM1.5 12.75V11.25H16.5V12.75H1.5Z" fill="#AF7E3C"/>
</svg>
