<svg width="25" height="24" viewBox="0 0 25 24" fill="none" xmlns="http://www.w3.org/2000/svg">
<g clip-path="url(#clip0_72_1764)">
<path d="M21.5002 12.424V11C21.5002 8.61305 20.552 6.32387 18.8642 4.63604C17.1763 2.94821 14.8871 2 12.5002 2C10.1132 2 7.82406 2.94821 6.13623 4.63604C4.44841 6.32387 3.50019 8.61305 3.50019 11V12.424C2.45135 12.8858 1.593 13.694 1.06882 14.7131C0.544637 15.7322 0.386456 16.9004 0.620752 18.0222C0.855049 19.1441 1.4676 20.1513 2.35586 20.8755C3.24413 21.5996 4.35418 21.9966 5.50019 22C6.03063 22 6.53934 21.7893 6.91441 21.4142C7.28948 21.0391 7.50019 20.5304 7.50019 20V14C7.50019 13.4696 7.28948 12.9609 6.91441 12.5858C6.53934 12.2107 6.03063 12 5.50019 12V11C5.50019 9.14348 6.23769 7.36301 7.55045 6.05025C8.8632 4.7375 10.6437 4 12.5002 4C14.3567 4 16.1372 4.7375 17.4499 6.05025C18.7627 7.36301 19.5002 9.14348 19.5002 11V12C18.9698 12 18.4611 12.2107 18.086 12.5858C17.7109 12.9609 17.5002 13.4696 17.5002 14V20H14.5002C14.235 20 13.9806 20.1054 13.7931 20.2929C13.6056 20.4804 13.5002 20.7348 13.5002 21C13.5002 21.2652 13.6056 21.5196 13.7931 21.7071C13.9806 21.8946 14.235 22 14.5002 22H19.5002C20.6462 21.9966 21.7563 21.5996 22.6445 20.8755C23.5328 20.1513 24.1453 19.1441 24.3796 18.0222C24.6139 16.9004 24.4558 15.7322 23.9316 14.7131C23.4074 13.694 22.549 12.8858 21.5002 12.424ZM5.50019 20C4.70455 20 3.94148 19.6839 3.37887 19.1213C2.81627 18.5587 2.50019 17.7956 2.50019 17C2.50019 16.2044 2.81627 15.4413 3.37887 14.8787C3.94148 14.3161 4.70455 14 5.50019 14V20ZM19.5002 20V14C20.2958 14 21.0589 14.3161 21.6215 14.8787C22.1841 15.4413 22.5002 16.2044 22.5002 17C22.5002 17.7956 22.1841 18.5587 21.6215 19.1213C21.0589 19.6839 20.2958 20 19.5002 20Z" fill="#AF7E3C"/>
</g>
<defs>
<clipPath id="clip0_72_1764">
<rect width="24" height="24" fill="white" transform="translate(0.5)"/>
</clipPath>
</defs>
</svg>
