<svg width="112" height="112" viewBox="0 0 112 112" fill="none" xmlns="http://www.w3.org/2000/svg">
<g clip-path="url(#clip0_559_2128)">
<path d="M61.0903 108.382C62.0075 107.465 62.6345 106.335 62.928 105.104C63.9555 105.663 65.095 105.943 66.2351 105.943C68.0083 105.943 69.7815 105.268 71.1314 103.918C72.2286 102.821 72.9105 101.42 73.1021 99.905C73.0625 100.223 75.2122 100.167 75.4272 100.164C76.9536 100.148 78.692 99.6734 79.7482 98.5087C80.3366 97.8599 80.7166 97.0573 81.0561 96.2587C81.1576 96.02 82.0149 93.7501 81.8062 93.7098C82.2399 93.7938 82.6847 93.8373 83.1364 93.8373C84.9861 93.8373 86.725 93.117 88.0327 91.8091C90.7325 89.1093 90.7325 84.7163 88.0327 82.0165L87.4854 81.4692C89.346 79.0737 90.1869 75.9827 89.7494 72.9511C89.5884 71.8357 89.9679 70.6945 90.7648 69.8978L94.1367 66.5258L96.2756 68.6647C96.9542 69.3432 97.8563 69.7169 98.8157 69.7169C99.7752 69.7169 100.677 69.3432 101.356 68.6647L110.514 59.5072C111.914 58.1065 111.914 55.8276 110.513 54.4269L86.3826 30.2968C85.7043 29.6183 84.8019 29.2446 83.8425 29.2446C82.8831 29.2446 81.9809 29.6183 81.3024 30.2968L72.1448 39.4543C70.7444 40.8548 70.7442 43.1339 72.1448 44.5346L74.2838 46.6735L72.331 48.6261C71.4551 49.502 70.2107 49.8623 69.0019 49.5906L63.4994 48.3518C60.1191 47.5908 56.6694 48.0683 53.7018 49.6212C51.2315 48.7289 48.5864 48.5303 45.992 49.054L42.9748 49.6628C41.792 49.9014 40.577 49.5346 39.7241 48.6817L37.7162 46.6738L39.8552 44.5348C41.2556 43.1342 41.2556 40.8552 39.855 39.4548L30.6979 30.2968C30.0195 29.6183 29.1172 29.2446 28.1577 29.2446C27.1983 29.2446 26.2962 29.6183 25.6176 30.2968L1.48708 54.4271C0.0864204 55.8278 0.0864204 58.1069 1.48708 59.5074L10.6444 68.6647C11.323 69.3432 12.2251 69.7169 13.1845 69.7169C14.1442 69.7169 15.0463 69.3432 15.7246 68.6647L17.8636 66.5258L21.2356 69.898C22.0325 70.6947 22.412 71.8359 22.2508 72.9511C22.0321 74.4655 21.9877 75.6599 22.3654 77.0343L18.8355 80.564C16.2426 83.1569 16.2426 87.3757 18.8355 89.9683C19.7551 90.8879 20.8797 91.4797 22.0631 91.747C21.0346 94.1696 21.5049 97.0825 23.4774 99.0547C24.7334 100.311 26.4031 101.003 28.1794 101.003C28.7733 101.003 29.355 100.924 29.9136 100.773C30.118 102.13 30.7403 103.435 31.7826 104.478C33.079 105.774 34.7819 106.422 36.4849 106.422C37.0103 106.422 37.5355 106.36 38.0492 106.237C38.2351 107.634 38.8625 108.984 39.9339 110.055C41.2302 111.351 42.9332 112 44.636 112C46.3389 112 48.0419 111.352 49.3382 110.055L51.1543 108.239L51.2973 108.382C52.6052 109.69 54.3441 110.41 56.1936 110.41C58.0438 110.41 59.7826 109.69 61.0903 108.382ZM83.8425 32.8367L107.973 56.9673L98.8155 66.1246L74.685 41.9943L83.8425 32.8367ZM62.7104 51.8559L68.2126 53.0947C70.6298 53.6392 73.1189 52.9182 74.8711 51.1658L76.8237 49.2132L91.5961 63.9854L88.2243 67.3572C86.6307 68.9504 85.8714 71.2335 86.1934 73.4641C86.4697 75.3781 85.9968 77.3267 84.9166 78.9007L63.5843 57.5684C62.9383 56.9226 61.9106 56.8642 61.1958 57.433L55.1318 62.259C54.5178 62.7477 54.292 63.5783 54.5744 64.3105L55.057 65.5619C56.1256 68.3337 54.9389 71.4478 52.2968 72.8056L51.8908 73.0143L46.9094 63.187C46.3814 62.1451 46.5815 60.8897 47.4075 60.0637L52.7227 54.7487C55.351 52.1213 59.0846 51.0398 62.7104 51.8559ZM13.1847 66.1246L4.0272 56.9673L28.1575 32.8369L37.3164 41.9929L13.1847 66.1246ZM21.3758 83.1044L26.1719 78.3083C26.7494 77.7308 27.5172 77.4127 28.3338 77.4127C29.1504 77.4127 29.9185 77.7308 30.4957 78.3083C31.6879 79.5005 31.6879 81.4403 30.4957 82.6323L25.6996 87.4284C24.5072 88.6208 22.5676 88.6206 21.3756 87.4284C20.1836 86.2362 20.1836 84.2966 21.3758 83.1044ZM26.0177 96.5148C25.4402 95.9373 25.1221 95.1695 25.1221 94.3529C25.1221 93.5361 25.4402 92.7683 26.0177 92.1908L34.3232 83.8853C34.9193 83.2892 35.7022 82.9913 36.4853 82.9913C37.2682 82.9913 38.0511 83.2892 38.6472 83.8853C39.8394 85.0775 39.8394 87.0174 38.6472 88.2093L30.3417 96.5148C29.7642 97.0923 28.9964 97.4104 28.1798 97.4104C27.3632 97.4104 26.5952 97.0923 26.0177 96.5148ZM34.3232 101.938C33.7457 101.36 33.4276 100.593 33.4276 99.776C33.4276 98.9594 33.7457 98.1913 34.3232 97.6141L39.0423 92.895C39.6384 92.2989 40.4213 92.0009 41.2044 92.0009C41.9873 92.0009 42.7702 92.2989 43.3663 92.895C44.5585 94.0872 44.5585 96.027 43.3663 97.219L42.0818 98.5035C42.0809 98.5044 38.6472 101.938 38.6472 101.938C38.0697 102.516 37.3019 102.834 36.4853 102.834C35.6685 102.833 34.9007 102.515 34.3232 101.938ZM48.9436 105.37L46.7985 107.515C45.6061 108.708 43.6665 108.707 42.4745 107.515C41.2827 106.323 41.2825 104.385 42.4734 103.192L44.6211 101.045C45.2169 100.45 45.9994 100.152 46.7817 100.152C47.5648 100.152 48.3477 100.45 48.9438 101.046C50.1358 102.238 50.1358 104.178 48.9436 105.37ZM53.1409 105.145C53.8294 102.871 53.2777 100.3 51.4837 98.5057C50.4123 97.4343 49.063 96.8069 47.6656 96.6212C48.1891 94.4435 47.6031 92.051 45.9067 90.3546C44.9768 89.4247 43.8371 88.8302 42.6388 88.5674C43.6199 86.1623 43.1364 83.2945 41.1874 81.3454C39.491 79.649 37.0985 79.0632 34.9208 79.5867C34.7349 78.1893 34.1075 76.8398 33.0361 75.7684C31.78 74.5123 30.1103 73.8206 28.334 73.8206C27.4124 73.8206 26.5202 74.0085 25.6988 74.3631C25.7215 74.0941 25.7583 73.7998 25.8066 73.4649C26.1286 71.2343 25.3695 68.9515 23.7762 67.3581L20.4041 63.9861L35.1765 49.2139L37.1844 51.2218C38.8905 52.9278 41.3214 53.6615 43.6857 53.1842L46.7029 52.5754C47.7892 52.3562 48.8865 52.3118 49.9669 52.4262L44.868 57.5248C42.9406 59.4525 42.4738 62.3809 43.706 64.8125L48.6874 74.6398C49.1229 75.4991 49.8676 76.1359 50.7837 76.4329C51.7003 76.7302 52.6768 76.651 53.5336 76.2109L53.9396 76.0022C58.2186 73.8033 60.1401 68.7601 58.4095 64.2711L58.4014 64.2499L62.1788 61.2434L85.493 84.5575C86.7921 85.8567 86.7921 87.9707 85.493 89.2698C84.369 90.3938 82.6228 90.5283 81.2993 89.678C80.2981 89.0349 76.8285 85.3358 75.9207 84.4335C74.2256 82.7487 72.5303 81.0639 70.8352 79.3791C70.7431 79.2874 70.6508 79.1957 70.5585 79.1041C69.855 78.4047 68.7177 78.4082 68.0184 79.112C67.319 79.8157 67.3225 80.9527 68.0262 81.6521L77.2671 90.8365C77.8964 91.4659 78.2432 92.3026 78.2432 93.1929C78.2432 94.1438 77.7184 95.0206 77.1459 95.7435C76.0126 97.1744 73.7148 96.7091 72.5598 95.5541L62.4848 85.3997C61.7862 84.6956 60.6489 84.6914 59.9447 85.3897C59.2406 86.0883 59.2362 87.2256 59.9347 87.9298L68.4768 96.5393C68.5129 96.5831 68.551 96.6257 68.5919 96.6667C69.2213 97.296 69.568 98.1327 69.568 99.0228C69.568 99.9129 69.2213 100.75 68.5919 101.379C67.2928 102.678 65.1788 102.678 63.8796 101.379L54.9592 92.4586C54.2579 91.7572 53.1204 91.7572 52.4191 92.4586C51.7175 93.1599 51.7175 94.2974 52.4191 94.9987L58.5511 101.131C59.8502 102.43 59.8502 104.544 58.5511 105.843C57.9217 106.472 57.085 106.819 56.1949 106.819C55.3048 106.819 54.4681 106.472 53.8388 105.843L53.1409 105.145Z" fill="white"/>
<path d="M57.1677 28.7383V1.79616C57.1677 0.804125 56.3636 0 55.3715 0C54.3795 0 53.5754 0.804125 53.5754 1.79616V28.7383C53.5754 29.7303 54.3795 30.5344 55.3715 30.5344C56.3636 30.5344 57.1677 29.7303 57.1677 28.7383Z" fill="white"/>
<path d="M45.5698 34.0498C45.9205 34.4004 46.3803 34.5759 46.8399 34.5759C47.2995 34.5759 47.7593 34.4004 48.1099 34.0498C48.8115 33.3485 48.8115 32.211 48.1099 31.5096L31.0466 14.4463C30.3452 13.745 29.2077 13.745 28.5064 14.4463C27.8049 15.1476 27.8049 16.2851 28.5064 16.9864L45.5698 34.0498Z" fill="white"/>
<path d="M65.1733 34.0498L82.2367 16.9864C82.9382 16.2851 82.9382 15.1476 82.2367 14.4463C81.5354 13.745 80.3979 13.745 79.6966 14.4463L62.6332 31.5096C61.9316 32.211 61.9316 33.3485 62.6332 34.0498C62.9838 34.4004 63.4434 34.5759 63.9032 34.5759C64.3628 34.5759 64.8226 34.4004 65.1733 34.0498Z" fill="white"/>
</g>
<defs>
<clipPath id="clip0_559_2128">
<rect width="112" height="112" fill="white"/>
</clipPath>
</defs>
</svg>
