<svg width="18" height="18" viewBox="0 0 18 18" fill="none" xmlns="http://www.w3.org/2000/svg">
<g clip-path="url(#clip0_527_1638)">
<path d="M14.25 11.25H13.5C13.0852 11.25 12.75 10.9148 12.75 10.5C12.75 10.0852 13.0852 9.75 13.5 9.75H14.25C14.6648 9.75 15 10.0852 15 10.5C15 10.9148 14.6648 11.25 14.25 11.25ZM15 13.5C15 13.0852 14.6648 12.75 14.25 12.75H13.5C13.0852 12.75 12.75 13.0852 12.75 13.5C12.75 13.9148 13.0852 14.25 13.5 14.25H14.25C14.6648 14.25 15 13.9148 15 13.5ZM12 4.5C12 4.08525 11.6648 3.75 11.25 3.75H10.5C10.0852 3.75 9.75 4.08525 9.75 4.5C9.75 4.91475 10.0852 5.25 10.5 5.25H11.25C11.6648 5.25 12 4.91475 12 4.5ZM15 4.5C15 4.08525 14.6648 3.75 14.25 3.75H13.5C13.0852 3.75 12.75 4.08525 12.75 4.5C12.75 4.91475 13.0852 5.25 13.5 5.25H14.25C14.6648 5.25 15 4.91475 15 4.5ZM15 7.5C15 7.08525 14.6648 6.75 14.25 6.75H13.5C13.0852 6.75 12.75 7.08525 12.75 7.5C12.75 7.91475 13.0852 8.25 13.5 8.25H14.25C14.6648 8.25 15 7.91475 15 7.5ZM18 14.25V3.75C18 1.68225 16.3177 0 14.25 0H10.5C8.43225 0 6.75 1.68225 6.75 3.75C6.75 4.16475 7.08525 4.5 7.5 4.5C7.91475 4.5 8.25 4.16475 8.25 3.75C8.25 2.5095 9.2595 1.5 10.5 1.5H14.25C15.4905 1.5 16.5 2.5095 16.5 3.75V14.25C16.5 15.4905 15.4905 16.5 14.25 16.5H13.5C13.0852 16.5 12.75 16.8353 12.75 17.25C12.75 17.6647 13.0852 18 13.5 18H14.25C16.3177 18 18 16.3177 18 14.25ZM12 14.625V11.511C12 10.35 11.4757 9.2745 10.5608 8.5575L8.31075 6.79575C6.95025 5.73225 5.04975 5.7315 3.68925 6.79575L1.43925 8.55675C0.52425 9.273 0 10.3492 0 11.5103V14.6243C0 16.485 1.51425 17.9993 3.375 17.9993H8.625C10.4858 17.9993 12 16.4858 12 14.625ZM7.38675 7.97775L9.63675 9.73875C10.185 10.1685 10.5 10.815 10.5 11.511V14.625C10.5 15.6593 9.65925 16.5 8.625 16.5H3.375C2.34075 16.5 1.5 15.6593 1.5 14.625V11.511C1.5 10.8142 1.815 10.1685 2.36325 9.73875L4.61325 7.9785C5.02125 7.659 5.51025 7.49925 6 7.49925C6.48975 7.49925 6.97875 7.659 7.38675 7.97775ZM7.5 13.5V12C7.5 11.586 7.164 11.25 6.75 11.25H5.25C4.836 11.25 4.5 11.586 4.5 12V13.5C4.5 13.914 4.836 14.25 5.25 14.25H6.75C7.164 14.25 7.5 13.914 7.5 13.5Z" fill="#AF7E3C"/>
</g>
<defs>
<clipPath id="clip0_527_1638">
<rect width="18" height="18" fill="white"/>
</clipPath>
</defs>
</svg>
