<svg width="40" height="40" viewBox="0 0 40 40" fill="none" xmlns="http://www.w3.org/2000/svg">
<g clip-path="url(#clip0_514_2442)">
<path d="M0.809433 13.9886L17.2452 24.2185C18.0951 24.7476 19.0467 25.0121 20 25.0121C20.9533 25.0121 21.9049 24.7476 22.7548 24.2185L39.1889 13.9886C39.6905 13.6757 39.9972 13.1138 39.9972 12.5069C39.9972 11.9001 39.6905 11.3364 39.1889 11.0252L22.7548 0.793568C21.0549 -0.264523 18.9434 -0.264523 17.2435 0.793568L0.809433 11.0235C0.307795 11.3364 0.00114623 11.8983 0.00114623 12.5052C0.00114623 13.112 0.307795 13.6757 0.809433 13.9869V13.9886ZM21.0399 21.2535C20.3983 21.6528 19.6 21.6528 18.9584 21.2535L13.7504 18.0118L19.9983 14.1234L26.2446 18.0118L21.0383 21.2517L21.0399 21.2535ZM29.4861 15.9959L23.2398 12.1075L28.8462 8.6186L35.0925 12.5069L29.4861 15.9959ZM18.9601 3.75864C19.6017 3.361 20.3983 3.361 21.0399 3.75864L25.6063 6.60097L20 10.0916L14.3937 6.60097L18.9601 3.75864ZM11.1538 8.6186L16.7602 12.1075L10.5139 15.9959L4.90753 12.5069L11.1538 8.6186ZM0.239466 19.1788C0.711106 18.3575 1.73438 18.0947 2.526 18.5858L18.9601 28.8157C19.6017 29.2133 20.4 29.2133 21.0416 28.8157L37.4757 18.5858C38.2656 18.0947 39.2889 18.3593 39.7622 19.1788C40.2355 19.9983 39.9805 21.0598 39.1906 21.5508L22.7565 31.7808C21.9066 32.3098 20.9533 32.5743 20.0017 32.5743C19.0501 32.5743 18.0968 32.3098 17.2468 31.7808L0.809433 21.5508C0.0194785 21.0598 -0.235507 19.9983 0.237799 19.1788H0.239466ZM39.7622 26.6044C40.2355 27.4239 39.9805 28.4855 39.1906 28.9765L22.7565 39.2064C21.9066 39.7372 20.9533 40 20.0017 40C19.0501 40 18.0951 39.7372 17.2452 39.2064L0.809433 28.9765C0.0194785 28.4855 -0.235507 27.4239 0.237799 26.6044C0.709439 25.7849 1.73271 25.5187 2.52434 26.0114L18.9584 36.2414C19.6 36.639 20.3983 36.639 21.0383 36.2414L37.474 26.0114C38.264 25.5204 39.2889 25.7849 39.7622 26.6044Z" fill="#003462"/>
</g>
<defs>
<clipPath id="clip0_514_2442">
<rect width="40" height="40" fill="white"/>
</clipPath>
</defs>
</svg>
