<svg width="24" height="25" viewBox="0 0 24 25" fill="none" xmlns="http://www.w3.org/2000/svg">
<path d="M23.9942 24.1999L24.0002 24.1984V15.3964C24.0002 11.0899 23.0732 7.77344 18.0392 7.77344C15.6197 7.77344 13.9952 9.10094 13.3322 10.3609H13.2632V8.17544H8.49023V24.1984H13.4612V16.2649C13.4612 14.1754 13.8572 12.1564 16.4447 12.1564C18.9932 12.1564 19.0322 14.5399 19.0322 16.3999V24.1999H23.9942Z" fill="#003462"/>
<path d="M0.395996 8.177H5.3715V24.2H0.395996V8.177Z" fill="#003462"/>
<path d="M2.8815 0.199951C1.2915 0.199951 0 1.49145 0 3.08145C0 4.67295 1.2915 5.98995 2.8815 5.98995C4.4715 5.98995 5.763 4.67295 5.763 3.08145C5.763 1.49145 4.4715 0.199951 2.8815 0.199951Z" fill="#003462"/>
</svg>
