<svg width="40" height="40" viewBox="0 0 40 40" fill="none" xmlns="http://www.w3.org/2000/svg">
<path d="M36.6667 15.2865V11.6665C36.6667 6.1515 32.1817 1.6665 26.6667 1.6665H13.3333C7.81833 1.6665 3.33333 6.1515 3.33333 11.6665V15.2865C1.39333 15.9748 0 17.8265 0 19.9998V26.6665C0 29.3865 1.31 31.8065 3.33333 33.3282V33.3332V36.6665C3.33333 37.5865 4.08 38.3332 5 38.3332C5.92 38.3332 6.66667 37.5865 6.66667 36.6665V34.8315C7.205 34.9415 7.76333 34.9998 8.33333 34.9998H31.6667C32.2367 34.9998 32.795 34.9415 33.3333 34.8315V36.6665C33.3333 37.5865 34.08 38.3332 35 38.3332C35.92 38.3332 36.6667 37.5865 36.6667 36.6665V33.3332V33.3282C38.69 31.8065 40 29.3865 40 26.6665V19.9998C40 17.8265 38.6067 15.9748 36.6667 15.2865ZM13.3333 4.99984H26.6667C30.3433 4.99984 33.3333 7.98984 33.3333 11.6665V15.2865C31.3933 15.9748 30 17.8265 30 19.9998V23.3332H10V19.9998C10 17.8265 8.60667 15.9748 6.66667 15.2865V11.6665C6.66667 7.98984 9.65667 4.99984 13.3333 4.99984ZM36.6667 26.6665C36.6667 29.4232 34.4233 31.6665 31.6667 31.6665H8.33333C5.57667 31.6665 3.33333 29.4232 3.33333 26.6665V19.9998C3.33333 19.0815 4.08167 18.3332 5 18.3332C5.91833 18.3332 6.66667 19.0815 6.66667 19.9998V24.9998C6.66667 25.9198 7.41333 26.6665 8.33333 26.6665H31.6667C32.5867 26.6665 33.3333 25.9198 33.3333 24.9998V19.9998C33.3333 19.0815 34.0817 18.3332 35 18.3332C35.9183 18.3332 36.6667 19.0815 36.6667 19.9998V26.6665Z" fill="#003462"/>
</svg>
