<svg xmlns="http://www.w3.org/2000/svg" version="1.1" xmlns:xlink="http://www.w3.org/1999/xlink" width="512" height="512" x="0" y="0" viewBox="0 0 24 24" style="enable-background:new 0 0 512 512" xml:space="preserve" class=""><g><path d="M7 23a1 1 0 0 1-1 1H5c-2.757 0-5-2.243-5-5V9.724C0 8.059.824 6.51 2.203 5.579l7-4.724a4.98 4.98 0 0 1 5.593 0l7 4.724c.315.213.607.462.865.74a1 1 0 1 1-1.465 1.361 2.972 2.972 0 0 0-.519-.443l-6.999-4.724a2.986 2.986 0 0 0-3.356 0l-7 4.724A2.996 2.996 0 0 0 2 9.724V19c0 1.654 1.346 3 3 3h1a1 1 0 0 1 1 1Zm10.937-10.046a1.5 1.5 0 1 0 2.12 2.121 1.5 1.5 0 0 0-2.12-2.121Zm4.45 5.45a5.496 5.496 0 0 1-4.413 1.584l-3.133 3.133a2.981 2.981 0 0 1-2.121.878h-1.71a2.003 2.003 0 0 1-2-1.991l-.009-1.988a1.493 1.493 0 0 1 .438-1.066 1.493 1.493 0 0 1 1.062-.441h.49l.004-.511a1.504 1.504 0 0 1 1.5-1.489h.761v-.393a5.47 5.47 0 0 1 2.138-6.15c1.803-1.251 4.244-1.288 6.072-.094 2.92 1.798 3.394 6.167.922 8.525Zm-.408-4.253c-.111-1.071-.682-1.993-1.608-2.598-1.154-.755-2.697-.728-3.839.062a3.49 3.49 0 0 0-1.33 4.026c.035.104.053.212.053.322v1.55a1 1 0 0 1-1 1H12.99l-.007 1.007a1 1 0 0 1-1 .993h-.98l.006 1.486h1.71a.994.994 0 0 0 .708-.293l3.487-3.487c.236-.235.574-.338.901-.274a3.5 3.5 0 0 0 4.164-3.796Z" fill="#af7e3c" opacity="1" data-original="#000000" class=""></path></g></svg>