<svg width="112" height="112" viewBox="0 0 112 112" fill="none" xmlns="http://www.w3.org/2000/svg">
<g clip-path="url(#clip0_559_2131)">
<path d="M100.185 51.3231C97.477 51.3231 95.1385 50.4616 93.0462 48.7385C91.9385 47.877 90.9539 46.8924 89.9693 45.9077C89.2308 45.1693 88.4923 44.5539 87.6308 44.0616C86.0308 43.077 84.5539 43.2001 83.077 44.0616C82.3385 44.5539 81.6 45.0462 80.9847 45.6616C80 46.6462 78.8923 47.6308 77.7846 48.4924C74.2154 51.4462 70.4 52.0616 66.0923 50.3385C65.1077 49.9693 64.2462 49.3539 63.5077 48.7385C62.4 47.7539 61.2923 46.7693 60.1846 45.7847C59.5693 45.1693 58.8308 44.5539 58.0923 44.0616C56.6154 43.077 55.2616 42.9539 53.6616 43.8154C52.4308 44.5539 51.2 45.5385 50.2154 46.5231C48.8616 47.877 47.5077 49.1077 45.7846 49.9693C42.2154 51.8154 38.7693 51.6924 35.2 49.8462C33.7231 48.9847 32.4923 47.877 31.2616 46.6462C30.2769 45.6616 29.2923 44.8001 28.1846 44.0616C26.8308 43.2001 25.4769 43.077 24 43.8154C22.7693 44.4308 21.7846 45.4154 20.8 46.277C19.9385 47.0154 19.2 47.7539 18.3385 48.4924C15.3846 50.9539 12.0616 51.9385 8.24618 50.9539C6.76926 50.5847 5.41541 49.8462 4.18464 48.9847C3.07695 48.1231 1.96926 47.1385 0.98464 46.1539C2.44953e-05 45.0462 -0.123052 43.5693 0.861563 42.4616C1.84618 41.3539 3.44618 41.3539 4.55387 42.3385C5.41541 43.077 6.15387 43.8154 6.89233 44.5539C7.63079 45.2924 8.49233 45.6616 9.35387 45.9077C11.3231 46.4001 13.1693 46.0308 14.7693 44.5539C15.8769 43.6924 16.8616 42.7077 17.8462 41.8462C19.3231 40.4924 20.9231 39.3847 22.7693 38.6462C25.1077 37.7847 27.3231 37.9077 29.5385 38.8924C31.2616 39.6308 32.6154 40.8616 33.8462 42.0924C34.8308 42.9539 35.8154 43.9385 36.8 44.8001C38.7693 46.4001 40.8616 46.5231 43.0769 45.5385C44.8 44.677 45.9077 43.2001 47.2616 42.0924C48.9846 40.7385 50.5846 39.3847 52.6769 38.6462C55.1385 37.9077 57.3539 38.0308 59.5693 39.2616C61.0462 40.0001 62.4 40.9847 63.5077 42.2154C64.3693 43.2001 65.4769 44.0616 66.4616 44.9231C68.4308 46.5231 71.0154 46.6462 73.1077 45.2924C74.4616 44.4308 75.6923 43.2001 76.8 42.0924C78.1539 40.8616 79.6308 39.7539 81.2308 39.0154C84.3077 37.6616 87.1385 37.9077 89.9693 39.6308C91.6923 40.7385 93.1693 42.0924 94.6462 43.5693C95.6308 44.5539 96.7385 45.5385 98.0923 45.9077C100.185 46.4001 102.031 46.0308 103.631 44.5539C104.615 43.5693 105.723 42.8308 106.708 41.8462C107.938 40.6154 109.662 40.9847 110.523 41.9693C111.508 43.077 111.385 44.677 110.277 45.7847C109.046 46.8924 107.815 48.0001 106.585 48.9847C104.985 50.4616 102.769 51.3231 100.185 51.3231Z" fill="white"/>
<path d="M99.8154 96.4924C97.4769 96.4924 95.1385 95.6308 93.0462 93.9078C91.9385 93.0462 90.9539 92.0616 89.9693 91.077C89.2308 90.3385 88.4923 89.7231 87.6308 89.2308C86.0308 88.2462 84.5539 88.3693 83.0769 89.2308C81.9693 89.8462 81.1077 90.7078 80.2462 91.5693C79.2616 92.5539 78.277 93.4154 77.1693 94.277C73.8462 96.7385 70.1539 97.2308 66.2154 95.6308C64.8616 95.1385 63.8769 94.277 62.7693 93.4155C61.4154 92.1847 60.1846 90.8308 58.7077 89.7231C56.7385 88.1231 55.1385 88.1231 53.0462 89.6001C51.3231 90.7078 50.0923 92.1847 48.6154 93.5385C46.1539 95.5078 43.4462 96.8616 40.2462 96.6154C39.0154 96.4924 37.7846 96.2462 36.5539 95.7539C34.7077 94.8924 33.1077 93.6616 31.7539 92.1847C30.8923 91.2001 29.7846 90.4616 28.8 89.6001C27.2 88.3693 25.4769 88.2462 23.7539 89.3539C22.6462 90.0924 21.5385 90.9539 20.5539 91.9385C18.7077 93.6616 16.8616 95.2616 14.4 96.1231C12.4308 96.7385 10.4616 96.7385 8.49233 96.3693C6.89233 96.0001 5.41541 95.1385 4.06156 94.1539C3.07695 93.1693 2.09233 92.3078 1.23079 91.3231C0.246179 90.3385 0.123102 88.7385 1.10772 87.6308C1.96926 86.6462 3.56926 86.4001 4.67695 87.3847C5.53849 88.1231 6.27695 88.9847 7.13849 89.7231C9.47695 91.8155 12.4308 91.8154 14.8923 89.9693C16.1231 88.9847 17.3539 87.877 18.4616 86.7693C20.5539 84.9231 22.7693 83.5693 25.6 83.3231C26.8308 83.2001 28.0616 83.4462 29.1693 83.8154C31.1385 84.5539 32.7385 85.7847 34.2154 87.2616C35.2 88.1231 36.0616 89.1078 37.1693 89.8462C39.1385 91.4462 41.2308 91.6924 43.5693 90.5847C45.1693 89.7231 46.2769 88.3693 47.6308 87.2616C49.6 85.6616 51.5693 83.9385 54.1539 83.4462C56.3693 82.9539 58.4616 83.4462 60.3077 84.5539C61.7846 85.4154 63.1385 86.5231 64.2462 87.7539C65.1077 88.6155 65.9693 89.3539 66.9539 90.0924C68.9231 91.6924 71.3846 91.6924 73.477 90.4616C74.9539 89.477 76.1846 88.2462 77.4154 87.0154C78.8923 85.6616 80.4923 84.5539 82.3385 83.8154C84.8 82.8308 87.2616 83.077 89.6 84.4308C91.077 85.2924 92.4308 86.277 93.5385 87.3847C94.277 88.1231 95.0154 88.8616 95.7539 89.477C98.5846 91.9385 101.538 91.9385 104.369 89.477C105.354 88.6154 106.338 87.7539 107.323 86.8924C108.308 86.0308 109.785 86.0308 110.769 86.8924C111.754 87.7539 111.877 89.1078 111.262 90.2155C111.015 90.5847 110.769 90.8308 110.523 91.077C109.538 91.9385 108.677 92.8001 107.692 93.6616C105.477 95.3847 103.015 96.4924 99.8154 96.4924Z" fill="white"/>
<path d="M100.062 73.8462C97.3539 73.8462 95.0154 72.9847 92.9231 71.1385C91.8154 70.277 90.8308 69.2924 89.8462 68.3078C89.1077 67.5693 88.2462 66.9539 87.3847 66.3385C85.9077 65.477 84.5539 65.7232 83.077 66.4616C82.2154 66.9539 81.477 67.5693 80.8616 68.1847C79.7539 69.2924 78.6462 70.277 77.4154 71.2616C73.9693 73.9693 70.277 74.4616 66.2154 72.9847C64.9846 72.4924 64 71.7539 63.1385 71.0155C61.5385 69.6616 60.1847 68.0616 58.4616 66.8309C56.7385 65.6001 55.1385 65.477 53.4154 66.5847C52.3077 67.3232 51.2 68.1847 50.3385 69.1693C48.8616 70.6462 47.1385 72.0001 45.1693 72.8616C41.8462 74.3385 38.5231 74.0924 35.3231 72.3693C33.8462 71.6309 32.7385 70.5232 31.6308 69.2924C30.6462 68.3078 29.6616 67.4462 28.5539 66.5847C27.2 65.6001 25.7231 65.477 24.1231 66.3385C22.8923 66.9539 21.9077 67.9385 20.9231 68.8001C20.0616 69.5385 19.2 70.5232 18.2154 71.2616C14.7693 73.9693 10.9539 74.5847 6.89234 72.9847C4.55388 72.0001 2.70772 70.277 0.984647 68.3078C0.123108 67.3232 0.246185 65.7232 1.2308 64.8616C2.21542 63.877 3.69234 63.877 4.80003 64.7385C5.53849 65.477 6.27696 66.2155 7.13849 66.9539C9.60003 69.1693 12.9231 69.1693 15.5077 66.8309C16.7385 65.7232 17.9693 64.6155 19.2 63.6309C20.9231 62.1539 22.8923 61.0462 25.1077 60.677C26.7077 60.4309 28.3077 60.677 29.9077 61.2924C31.6308 62.0309 32.9846 63.1385 34.2154 64.3693C35.2 65.2309 36.0616 66.0924 37.0462 66.9539C39.2616 69.0462 42.4616 69.0462 44.9231 67.077C45.6616 66.4616 46.4 65.7232 47.1385 65.1078C48.1231 64.1232 49.2308 63.2616 50.4616 62.4001C54.0308 60.0616 57.7231 59.6924 61.4154 62.277C62.5231 63.0155 63.5077 63.7539 64.3693 64.7385C65.2308 65.7232 66.3385 66.5847 67.3231 67.3232C69.1693 68.8001 71.7539 68.9232 73.8462 67.5693C75.2 66.7078 76.3077 65.6001 77.5385 64.4924C78.8923 63.1385 80.3693 62.1539 82.0923 61.4155C85.0462 60.0616 88 60.3078 90.8308 62.1539C92.3077 63.1385 93.6616 64.2462 94.8923 65.477C95.6308 66.3385 96.4923 67.077 97.477 67.6924C99.5693 69.0462 102.523 68.9232 104.738 66.8309C105.723 65.9693 106.708 65.1078 107.692 64.1232C108.8 63.1385 110.523 63.2616 111.385 64.2462C112.369 65.3539 112.246 66.9539 111.139 68.0616C110.031 69.1693 108.8 70.1539 107.569 71.1385C105.108 72.9847 102.769 73.9693 100.062 73.8462Z" fill="white"/>
<path d="M11.2 28.677C8.61538 28.677 6.27692 27.9385 4.18461 26.3385C3.19999 25.477 2.21538 24.6154 1.23076 23.6308C0.123071 22.5231 0.123071 20.9231 0.98461 19.9385C1.96923 18.8308 3.56923 18.8308 4.79999 19.8154C5.53846 20.5539 6.27692 21.2923 7.01538 21.9077C9.47692 24 12.3077 24 14.7692 22.0308C15.8769 21.1693 16.9846 20.1846 18.0923 19.2C20.0615 17.477 22.1538 16 24.7385 15.6308C26.4615 15.2616 28.1846 15.6308 29.7846 16.3693C31.3846 17.1077 32.6154 18.2154 33.9692 19.3231C34.8308 20.1846 35.8154 20.9231 36.6769 21.7846C39.1385 24.1231 42.4615 24 44.9231 21.7846C45.6615 21.1693 46.4 20.4308 47.1385 19.6923C48.4923 18.5846 49.8462 17.3539 51.4462 16.6154C54.6462 15.0154 57.8461 15.0154 61.0461 17.1077C62.6461 18.2154 64 19.5693 65.4769 20.9231C66.4615 21.7846 67.4462 22.7693 68.8 23.2616C70.7692 23.877 72.4923 23.5077 74.2154 22.277C75.4462 21.4154 76.4308 20.4308 77.5385 19.3231C79.0154 17.8462 80.7385 16.7385 82.7077 16C85.1692 15.1385 87.6308 15.2616 89.9692 16.6154C91.4461 17.3539 92.6769 18.3385 93.9077 19.5693C94.6462 20.3077 95.3846 21.0462 96.1231 21.6616C98.7077 24 101.785 24.1231 104.492 21.9077C105.477 21.0462 106.462 20.1846 107.323 19.3231C108.554 18.2154 110.277 18.0923 111.262 19.3231C112.246 20.5539 112.123 22.1539 110.769 23.2616C109.785 24.1231 108.8 24.9846 107.815 25.8462C103.508 29.6616 97.1077 29.5385 93.1692 25.9693C92.0615 24.9846 91.0769 24.1231 90.0923 23.1385C89.3538 22.4 88.4923 21.7846 87.6308 21.2923C86.1538 20.4308 84.8 20.677 83.4462 21.5385C82.7077 22.0308 81.9692 22.5231 81.3538 23.1385C80.2461 24.2462 79.0154 25.2308 77.7846 26.2154C74.3385 28.9231 70.5231 29.5385 66.4615 27.9385C65.2308 27.4462 64.1231 26.7077 63.2615 25.8462C62.0308 24.7385 60.9231 23.6308 59.6923 22.5231C58.9538 21.9077 58.0923 21.2923 57.1077 20.9231C56 20.5539 55.0154 20.8 54.0308 21.2923C52.8 21.9077 51.8154 22.7693 50.8308 23.7539C49.4769 25.2308 47.8769 26.4616 46.1538 27.4462C42.5846 29.2923 39.1385 29.1693 35.5692 27.3231C34.0923 26.5846 32.9846 25.477 31.7538 24.2462C30.7692 23.2616 29.6615 22.4 28.5538 21.5385C27.0769 20.4308 25.6 20.4308 24 21.2923C22.7692 22.0308 21.7846 23.0154 20.8 23.877C20.0615 24.4923 19.3231 25.3539 18.4615 25.9693C16.2461 27.6923 13.9077 28.8 11.2 28.677Z" fill="white"/>
</g>
<defs>
<clipPath id="clip0_559_2131">
<rect width="112" height="112" fill="white"/>
</clipPath>
</defs>
</svg>
