<svg width="18" height="18" viewBox="0 0 18 18" fill="none" xmlns="http://www.w3.org/2000/svg">
<g clip-path="url(#clip0_527_1632)">
<path d="M17.118 12.8844L5.11575 0.882867C4.242 0.00911707 2.9895 -0.241383 1.85025 0.233367C0.70875 0.705117 0 1.76562 0 3.00162V14.2449C0 16.3156 1.6845 18.0001 3.75525 18.0001H14.9985C16.233 18.0001 17.2942 17.2914 17.7667 16.1499C18.2392 15.0084 17.991 13.7581 17.118 12.8844ZM16.3822 15.5769C16.1422 16.1551 15.6255 16.5001 14.9992 16.5001H3.75525C2.51175 16.5001 1.5 15.4884 1.5 14.2449V3.00162C1.5 2.37537 1.845 1.85862 2.424 1.61862C2.61975 1.53762 2.8185 1.49787 3.01425 1.49787C3.396 1.49787 3.76275 1.65012 4.05525 1.94337L5.2635 3.15162L3.8325 4.58262C3.53925 4.87587 3.53925 5.34987 3.8325 5.64312C3.97875 5.78937 4.17075 5.86287 4.36275 5.86287C4.55475 5.86287 4.74675 5.78937 4.893 5.64312L6.324 4.21212L7.4235 5.31162L5.9925 6.74262C5.69925 7.03587 5.69925 7.50987 5.9925 7.80312C6.13875 7.94937 6.33075 8.02287 6.52275 8.02287C6.71475 8.02287 6.90675 7.94937 7.053 7.80312L8.484 6.37212L9.54525 7.43262L8.11425 8.86362C7.821 9.15687 7.821 9.63087 8.11425 9.92412C8.2605 10.0704 8.4525 10.1439 8.6445 10.1439C8.8365 10.1439 9.0285 10.0704 9.17475 9.92412L10.6057 8.49312L11.6662 9.55362L10.2352 10.9846C9.942 11.2779 9.942 11.7519 10.2352 12.0451C10.3815 12.1914 10.5735 12.2649 10.7655 12.2649C10.9575 12.2649 11.1495 12.1914 11.2957 12.0451L12.7267 10.6141L13.7872 11.6746L12.3562 13.1056C12.063 13.3989 12.063 13.8729 12.3562 14.1661C12.5025 14.3124 12.6945 14.3859 12.8865 14.3859C13.0785 14.3859 13.2705 14.3124 13.4167 14.1661L14.8477 12.7351L16.056 13.9434C16.4985 14.3866 16.62 14.9964 16.3807 15.5754L16.3822 15.5769ZM8.031 12.2199C8.2455 12.4344 8.31 12.7569 8.19375 13.0374C8.0775 13.3179 7.80375 13.5001 7.50075 13.5001H5.25075C4.83675 13.5001 4.50075 13.1649 4.50075 12.7501V10.5001C4.50075 10.1971 4.68375 9.92262 4.9635 9.80712C5.244 9.69012 5.5665 9.75537 5.781 9.96987L8.031 12.2199Z" fill="#AF7E3C"/>
</g>
<defs>
<clipPath id="clip0_527_1632">
<rect width="18" height="18" fill="white"/>
</clipPath>
</defs>
</svg>
