<svg width="40" height="40" viewBox="0 0 40 40" fill="none" xmlns="http://www.w3.org/2000/svg">
<g clip-path="url(#clip0_514_2475)">
<path d="M36.805 10.94L25.1383 1.79996C22.1133 -0.570039 17.885 -0.570039 14.86 1.79996L3.195 10.94C1.165 12.5283 0 14.92 0 17.5V31.6666C0 36.2616 3.73833 40 8.33333 40H31.6667C36.2617 40 40 36.2616 40 31.6666V17.5C40 14.92 38.835 12.53 36.805 10.94ZM36.6667 31.6666C36.6667 34.4233 34.4233 36.6666 31.6667 36.6666H8.33333C5.57667 36.6666 3.33333 34.4233 3.33333 31.6666V17.5C3.33333 15.9516 4.03167 14.5183 5.25 13.565L16.9167 4.42496C17.825 3.71329 18.9117 3.35829 20 3.35829C21.0883 3.35829 22.1767 3.71329 23.0833 4.42496L34.75 13.565C35.9683 14.5183 36.6667 15.9533 36.6667 17.5V31.6666ZM22.5 29.1666C22.5 30.5466 21.38 31.6666 20 31.6666C18.62 31.6666 17.5 30.5466 17.5 29.1666C17.5 27.7866 18.62 26.6666 20 26.6666C21.38 26.6666 22.5 27.7866 22.5 29.1666ZM25.8933 22.4416C26.545 23.0933 26.545 24.1466 25.8933 24.7983C25.5683 25.1233 25.1417 25.2866 24.715 25.2866C24.2883 25.2866 23.8617 25.1233 23.5367 24.7983C21.5867 22.8483 18.415 22.8483 16.465 24.7983C15.8133 25.45 14.76 25.45 14.1083 24.7983C13.4567 24.1466 13.4567 23.0933 14.1083 22.4416C17.3567 19.1933 22.645 19.1933 25.8933 22.4416ZM30.6067 17.7266C31.2583 18.3783 31.2583 19.4316 30.6067 20.0833C30.2817 20.4083 29.855 20.5716 29.4283 20.5716C29.0017 20.5716 28.575 20.4083 28.25 20.0833C23.7017 15.535 16.3 15.535 11.7517 20.0833C11.1 20.735 10.0467 20.735 9.395 20.0833C8.74333 19.4316 8.74333 18.3783 9.395 17.7266C15.2433 11.8766 24.7583 11.8766 30.6067 17.7266Z" fill="#003462"/>
</g>
<defs>
<clipPath id="clip0_514_2475">
<rect width="40" height="40" fill="white"/>
</clipPath>
</defs>
</svg>
