<svg width="40" height="40" viewBox="0 0 40 40" fill="none" xmlns="http://www.w3.org/2000/svg">
<g clip-path="url(#clip0_514_2448)">
<g clip-path="url(#clip1_514_2448)">
<path d="M10.0005 19.9999C15.5155 19.9999 20.0005 15.5149 20.0005 9.99991C20.0005 4.48491 15.5155 -8.65221e-05 10.0005 -8.65221e-05C4.48547 -8.65221e-05 0.000474845 4.48491 0.000474845 9.99991C0.000474845 15.5149 4.48547 19.9999 10.0005 19.9999ZM10.0005 3.33325C13.6771 3.33325 16.6671 6.32325 16.6671 9.99991C16.6671 11.8782 15.8805 13.5716 14.6255 14.7832C13.8821 12.9582 12.0988 11.6666 10.0088 11.6666H9.99214C7.90047 11.6666 6.11548 12.9566 5.37214 14.7816C4.12048 13.5682 3.33381 11.8782 3.33381 9.99991C3.33381 6.32325 6.32381 3.33325 10.0005 3.33325ZM7.50047 7.49991C7.50047 6.11991 8.62048 4.99991 10.0005 4.99991C11.3805 4.99991 12.5005 6.11991 12.5005 7.49991C12.5005 8.87991 11.3805 9.99991 10.0005 9.99991C8.62048 9.99991 7.50047 8.87991 7.50047 7.49991ZM38.9388 11.4649C38.7405 11.5432 38.5355 11.5782 38.3338 11.5782C37.6671 11.5782 37.0371 11.1766 36.7805 10.5166L34.9238 5.75825C28.8288 18.6782 17.8005 27.3682 2.10047 31.6099C1.95547 31.6482 1.80881 31.6666 1.66547 31.6666C0.930475 31.6666 0.257142 31.1782 0.0571415 30.4349C-0.182858 29.5466 0.342142 28.6316 1.23214 28.3899C15.9971 24.4016 26.3271 16.2582 31.9821 4.16991L26.8621 6.16658C26.0005 6.50325 25.0371 6.07491 24.7038 5.21991C24.3688 4.36158 24.7938 3.39658 25.6505 3.06158L32.9855 0.199913C34.5805 -0.426753 36.3988 0.369914 37.0255 1.96991L39.8871 9.30491C40.2221 10.1632 39.7971 11.1282 38.9405 11.4632L38.9388 11.4649ZM38.3338 14.9999V38.3332C38.3338 39.2549 37.5871 39.9999 36.6671 39.9999C35.7471 39.9999 35.0005 39.2549 35.0005 38.3332V14.9999C35.0005 14.0782 35.7471 13.3332 36.6671 13.3332C37.5871 13.3332 38.3338 14.0782 38.3338 14.9999ZM30.0005 23.3332V38.3332C30.0005 39.2549 29.2538 39.9999 28.3338 39.9999C27.4138 39.9999 26.6671 39.2549 26.6671 38.3332V23.3332C26.6671 22.4116 27.4138 21.6666 28.3338 21.6666C29.2538 21.6666 30.0005 22.4116 30.0005 23.3332ZM21.6671 29.9999V38.3332C21.6671 39.2549 20.9205 39.9999 20.0005 39.9999C19.0805 39.9999 18.3338 39.2549 18.3338 38.3332V29.9999C18.3338 29.0782 19.0805 28.3332 20.0005 28.3332C20.9205 28.3332 21.6671 29.0782 21.6671 29.9999ZM13.3338 33.3332V38.3332C13.3338 39.2549 12.5871 39.9999 11.6671 39.9999C10.7471 39.9999 10.0005 39.2549 10.0005 38.3332V33.3332C10.0005 32.4116 10.7471 31.6666 11.6671 31.6666C12.5871 31.6666 13.3338 32.4116 13.3338 33.3332ZM5.00048 36.6666V38.3332C5.00048 39.2549 4.25381 39.9999 3.33381 39.9999C2.41381 39.9999 1.66714 39.2549 1.66714 38.3332V36.6666C1.66714 35.7449 2.41381 34.9999 3.33381 34.9999C4.25381 34.9999 5.00048 35.7449 5.00048 36.6666Z" fill="#003462"/>
</g>
</g>
<defs>
<clipPath id="clip0_514_2448">
<rect width="40" height="40" fill="white"/>
</clipPath>
<clipPath id="clip1_514_2448">
<rect width="40" height="40" fill="white"/>
</clipPath>
</defs>
</svg>
