<svg width="40" height="40" viewBox="0 0 40 40" fill="none" xmlns="http://www.w3.org/2000/svg">
<g clip-path="url(#clip0_514_2455)">
<path d="M35.2033 21.6667C36.4751 21.6654 37.6944 21.1596 38.5936 20.2603C39.4929 19.3611 39.9987 18.1418 40 16.87C39.9982 15.5257 39.6794 14.2008 39.0695 13.0028C38.4597 11.8048 37.5759 10.7675 36.49 9.97503L25.015 1.6317C23.5593 0.567941 21.803 -0.00537109 20 -0.00537109C18.197 -0.00537109 16.4407 0.567941 14.985 1.6317L3.51 9.97503C2.42409 10.7675 1.54033 11.8048 0.930466 13.0028C0.320603 14.2008 0.00182221 15.5257 0 16.87C0.00132359 18.1418 0.50711 19.3611 1.40637 20.2603C2.30564 21.1596 3.52492 21.6654 4.79667 21.6667H18.3333V38.3334C18.3333 38.7754 18.5089 39.1993 18.8215 39.5119C19.134 39.8244 19.558 40 20 40C20.442 40 20.8659 39.8244 21.1785 39.5119C21.4911 39.1993 21.6667 38.7754 21.6667 38.3334V21.6667H35.2033ZM25.8333 13.4584C26.3783 14.2774 26.6683 15.2396 26.6667 16.2234V18.3334H21.6667V7.18837L25.8333 13.4584ZM34.53 12.6667C35.1918 13.1498 35.7302 13.7823 36.1014 14.5126C36.4727 15.243 36.6664 16.0507 36.6667 16.87C36.6662 17.258 36.5119 17.6299 36.2376 17.9043C35.9632 18.1786 35.5913 18.3329 35.2033 18.3334H30V16.2234C30.0016 14.583 29.5173 12.9789 28.6083 11.6134L24.4417 5.33003L34.53 12.6667ZM3.33333 16.87C3.33364 16.0507 3.52731 15.243 3.89858 14.5126C4.26985 13.7823 4.80825 13.1498 5.47 12.6667L15.565 5.33337L11.3983 11.6167C10.4876 12.9805 10.0011 14.5834 10 16.2234V18.3334H4.79667C4.4087 18.3329 4.03675 18.1786 3.76242 17.9043C3.48809 17.6299 3.33377 17.258 3.33333 16.87ZM13.3333 18.3334V16.2234C13.3317 15.2396 13.6217 14.2774 14.1667 13.4584L18.3333 7.18837V18.3334H13.3333Z" fill="#003462"/>
<path d="M6.66667 31.6667H3.33333V26.6667C3.33333 26.2246 3.15774 25.8007 2.84518 25.4882C2.53262 25.1756 2.10869 25 1.66667 25C1.22464 25 0.800716 25.1756 0.488155 25.4882C0.175595 25.8007 0 26.2246 0 26.6667L0 38.3333C0 38.7754 0.175595 39.1993 0.488155 39.5118C0.800716 39.8244 1.22464 40 1.66667 40C2.10869 40 2.53262 39.8244 2.84518 39.5118C3.15774 39.1993 3.33333 38.7754 3.33333 38.3333V35H6.66667C7.1087 35 7.53262 35.1756 7.84518 35.4882C8.15774 35.8007 8.33333 36.2246 8.33333 36.6667V38.3333C8.33333 38.7754 8.50893 39.1993 8.82149 39.5118C9.13405 39.8244 9.55797 40 10 40C10.442 40 10.866 39.8244 11.1785 39.5118C11.4911 39.1993 11.6667 38.7754 11.6667 38.3333V36.6667C11.6667 35.3406 11.1399 34.0688 10.2022 33.1311C9.26452 32.1935 7.99275 31.6667 6.66667 31.6667Z" fill="#003462"/>
<path d="M38.333 25C37.891 25 37.4671 25.1756 37.1545 25.4882C36.8419 25.8007 36.6663 26.2246 36.6663 26.6667V31.6667H33.333C32.0069 31.6667 30.7352 32.1935 29.7975 33.1311C28.8598 34.0688 28.333 35.3406 28.333 36.6667V38.3333C28.333 38.7754 28.5086 39.1993 28.8212 39.5118C29.1337 39.8244 29.5576 40 29.9997 40C30.4417 40 30.8656 39.8244 31.1782 39.5118C31.4907 39.1993 31.6663 38.7754 31.6663 38.3333V36.6667C31.6663 36.2246 31.8419 35.8007 32.1545 35.4882C32.4671 35.1756 32.891 35 33.333 35H36.6663V38.3333C36.6663 38.7754 36.8419 39.1993 37.1545 39.5118C37.4671 39.8244 37.891 40 38.333 40C38.775 40 39.199 39.8244 39.5115 39.5118C39.8241 39.1993 39.9997 38.7754 39.9997 38.3333V26.6667C39.9997 26.2246 39.8241 25.8007 39.5115 25.4882C39.199 25.1756 38.775 25 38.333 25Z" fill="#003462"/>
</g>
<defs>
<clipPath id="clip0_514_2455">
<rect width="40" height="40" fill="white"/>
</clipPath>
</defs>
</svg>
