<svg width="40" height="40" viewBox="0 0 40 40" fill="none" xmlns="http://www.w3.org/2000/svg">
<g clip-path="url(#clip0_514_2481)">
<path d="M20 20C21.9778 20 23.9112 19.4135 25.5557 18.3147C27.2002 17.2159 28.4819 15.6541 29.2388 13.8268C29.9957 11.9996 30.1937 9.98891 29.8079 8.0491C29.422 6.10929 28.4696 4.32746 27.0711 2.92894C25.6725 1.53041 23.8907 0.578004 21.9509 0.192152C20.0111 -0.193701 18.0004 0.00433286 16.1732 0.761209C14.3459 1.51809 12.7841 2.79981 11.6853 4.4443C10.5865 6.08879 10 8.02219 10 10C10.0026 12.6514 11.0571 15.1934 12.9319 17.0682C14.8066 18.9429 17.3486 19.9974 20 20ZM20 3.33334C21.3185 3.33334 22.6075 3.72433 23.7038 4.45687C24.8001 5.18942 25.6546 6.23061 26.1592 7.44878C26.6638 8.66696 26.7958 10.0074 26.5386 11.3006C26.2813 12.5938 25.6464 13.7817 24.714 14.7141C23.7817 15.6464 22.5938 16.2813 21.3006 16.5386C20.0074 16.7958 18.667 16.6638 17.4488 16.1592C16.2306 15.6546 15.1894 14.8001 14.4569 13.7038C13.7243 12.6075 13.3333 11.3185 13.3333 10C13.3333 8.2319 14.0357 6.5362 15.286 5.28596C16.5362 4.03572 18.2319 3.33334 20 3.33334Z" fill="#003462"/>
<path d="M20 23.3335C16.0231 23.3379 12.2104 24.9197 9.39827 27.7318C6.58618 30.5439 5.00441 34.3566 5 38.3335C5 38.7755 5.17559 39.1994 5.48816 39.512C5.80072 39.8246 6.22464 40.0002 6.66667 40.0002C7.10869 40.0002 7.53262 39.8246 7.84518 39.512C8.15774 39.1994 8.33333 38.7755 8.33333 38.3335C8.33333 35.2393 9.5625 32.2718 11.7504 30.0839C13.9383 27.896 16.9058 26.6668 20 26.6668C23.0942 26.6668 26.0617 27.896 28.2496 30.0839C30.4375 32.2718 31.6667 35.2393 31.6667 38.3335C31.6667 38.7755 31.8423 39.1994 32.1548 39.512C32.4674 39.8246 32.8913 40.0002 33.3333 40.0002C33.7754 40.0002 34.1993 39.8246 34.5118 39.512C34.8244 39.1994 35 38.7755 35 38.3335C34.9956 34.3566 33.4138 30.5439 30.6017 27.7318C27.7896 24.9197 23.9769 23.3379 20 23.3335Z" fill="#003462"/>
</g>
<defs>
<clipPath id="clip0_514_2481">
<rect width="40" height="40" fill="white"/>
</clipPath>
</defs>
</svg>
