<svg width="40" height="40" viewBox="0 0 40 40" fill="none" xmlns="http://www.w3.org/2000/svg">
<g clip-path="url(#clip0_514_2463)">
<path d="M0 11.6667V8.33333C0 3.73833 3.73833 0 8.33333 0H11.6667C12.5867 0 13.3333 0.746667 13.3333 1.66667C13.3333 2.58667 12.5867 3.33333 11.6667 3.33333H8.33333C5.57667 3.33333 3.33333 5.57667 3.33333 8.33333V11.6667C3.33333 12.5867 2.58667 13.3333 1.66667 13.3333C0.746667 13.3333 0 12.5867 0 11.6667ZM20 16.6667C18.1583 16.6667 16.6667 18.1583 16.6667 20C16.6667 21.8417 18.1583 23.3333 20 23.3333C21.8417 23.3333 23.3333 21.8417 23.3333 20C23.3333 18.1583 21.8417 16.6667 20 16.6667ZM11.6667 36.6667H8.33333C5.57667 36.6667 3.33333 34.4233 3.33333 31.6667V28.3333C3.33333 27.4133 2.58667 26.6667 1.66667 26.6667C0.746667 26.6667 0 27.4133 0 28.3333V31.6667C0 36.2617 3.73833 40 8.33333 40H11.6667C12.5867 40 13.3333 39.2533 13.3333 38.3333C13.3333 37.4133 12.5867 36.6667 11.6667 36.6667ZM31.6667 0H28.3333C27.4133 0 26.6667 0.746667 26.6667 1.66667C26.6667 2.58667 27.4133 3.33333 28.3333 3.33333H31.6667C34.4233 3.33333 36.6667 5.57667 36.6667 8.33333V11.6667C36.6667 12.5867 37.4133 13.3333 38.3333 13.3333C39.2533 13.3333 40 12.5867 40 11.6667V8.33333C40 3.73833 36.2617 0 31.6667 0ZM20 30C12.3717 30 7.465 23.2983 6.56833 21.505C6.09 20.55 6.09 19.455 6.56833 18.4967C7.46333 16.7017 12.3683 10 20 10C27.6317 10 32.5367 16.7017 33.4317 18.4967C33.9067 19.45 33.9067 20.545 33.4317 21.5C32.535 23.2967 27.63 29.9983 19.9983 29.9983L20 30ZM30.45 19.9867C29.9033 18.8917 25.89 13.3333 20 13.3333C14.11 13.3333 10.0967 18.8917 9.55 19.9867C10.0967 21.11 14.1117 26.6667 20 26.6667C25.8883 26.6667 29.9033 21.08 30.45 19.9867ZM38.3333 26.6667C37.4133 26.6667 36.6667 27.4133 36.6667 28.3333V31.6667C36.6667 34.4233 34.4233 36.6667 31.6667 36.6667H28.3333C27.4133 36.6667 26.6667 37.4133 26.6667 38.3333C26.6667 39.2533 27.4133 40 28.3333 40H31.6667C36.2617 40 40 36.2617 40 31.6667V28.3333C40 27.4133 39.2533 26.6667 38.3333 26.6667Z" fill="#003462"/>
</g>
<defs>
<clipPath id="clip0_514_2463">
<rect width="40" height="40" fill="white"/>
</clipPath>
</defs>
</svg>
