<svg width="26" height="26" viewBox="0 0 26 26" fill="none" xmlns="http://www.w3.org/2000/svg">
<g clip-path="url(#clip0_527_70)">
<path d="M25.037 7.11336C24.748 6.02566 23.8969 5.16827 22.8155 4.87723C20.8568 4.34961 13 4.34961 13 4.34961C13 4.34961 5.1432 4.34961 3.18345 4.87723C2.10308 5.16827 1.25197 6.02461 0.963031 7.11336C0.4375 9.08567 0.4375 13.1999 0.4375 13.1999C0.4375 13.1999 0.4375 17.3141 0.963031 19.2864C1.25197 20.3741 2.10308 21.2315 3.1845 21.5226C5.1432 22.0502 13 22.0502 13 22.0502C13 22.0502 20.8568 22.0502 22.8165 21.5226C23.8969 21.2315 24.748 20.3752 25.038 19.2864C25.5625 17.3141 25.5625 13.1999 25.5625 13.1999C25.5625 13.1999 25.5625 9.08567 25.037 7.11336ZM10.431 16.9362V9.46359L16.997 13.1999L10.431 16.9362Z" fill="#003462"/>
</g>
<defs>
<clipPath id="clip0_527_70">
<rect width="25.125" height="25.125" fill="white" transform="translate(0.4375 0.637451)"/>
</clipPath>
</defs>
</svg>
